<?xml version="1.0" encoding="UTF-8" standalone="no"?>
<svg
   viewBox="0 0 48 48"
   width="48px"
   height="48px"
   version="1.1"
   id="svg4"
   sodipodi:docname="vk.svg"
   inkscape:version="1.4.2 (f4327f4, 2025-05-13)"
   xmlns:inkscape="http://www.inkscape.org/namespaces/inkscape"
   xmlns:sodipodi="http://sodipodi.sourceforge.net/DTD/sodipodi-0.dtd"
   xmlns="http://www.w3.org/2000/svg"
   xmlns:svg="http://www.w3.org/2000/svg">
  <defs
     id="defs4" />
  <sodipodi:namedview
     id="namedview4"
     pagecolor="#ffffff"
     bordercolor="#000000"
     borderopacity="0.25"
     inkscape:showpageshadow="2"
     inkscape:pageopacity="0.0"
     inkscape:pagecheckerboard="0"
     inkscape:deskcolor="#d1d1d1"
     inkscape:zoom="10.479167"
     inkscape:cx="16.461233"
     inkscape:cy="16.365805"
     inkscape:window-width="1366"
     inkscape:window-height="705"
     inkscape:window-x="-8"
     inkscape:window-y="-8"
     inkscape:window-maximized="1"
     inkscape:current-layer="svg4" />
  <path
     fill="#fff"
     d="M24,5C21.361,5,13.33,5,8.89,9.054C6.246,11.688,5,15.494,5,21v3c0,5.506,1.246,9.312,3.921,11.976 c1.332,1.215,3.148,2.186,5.368,2.857L15,39.047v5.328C15,45,15.181,45,15.241,45c0.123,0,0.32-0.039,0.694-0.371 c0.09-0.089,0.75-0.803,3.96-4.399l0.324-0.363l0.485,0.031C21.779,39.965,22.888,40,24,40c2.639,0,10.67,0,15.11-4.055 C41.753,33.311,43,29.505,43,24v-3c0-5.506-1.246-9.312-3.921-11.976C34.67,5,26.639,5,24,5z"
     id="path1" />
  <path
     fill="#7e57c2"
     d="M33.451 28.854c-1.111-.936-1.624-1.219-3.158-2.14C29.654 26.331 28.68 26 28.169 26c-.349 0-.767.267-1.023.523C26.49 27.179 26.275 28 25.125 28c-1.125 0-3.09-1.145-4.5-2.625C19.145 23.965 18 22 18 20.875c0-1.15.806-1.38 1.462-2.037C19.718 18.583 20 18.165 20 17.816c0-.511-.331-1.47-.714-2.109-.921-1.535-1.203-2.048-2.14-3.158-.317-.376-.678-.548-1.056-.549-.639-.001-1.478.316-2.046.739-.854.637-1.747 1.504-1.986 2.584-.032.147-.051.295-.057.443-.046 1.125.396 2.267.873 3.234 1.123 2.279 2.609 4.485 4.226 6.455.517.63 1.08 1.216 1.663 1.782.566.582 1.152 1.145 1.782 1.663 1.97 1.617 4.176 3.103 6.455 4.226.958.472 2.086.906 3.2.874.159-.005.318-.023.477-.058 1.08-.238 1.947-1.132 2.584-1.986.423-.568.74-1.406.739-2.046C33.999 29.532 33.827 29.171 33.451 28.854zM34 24c-.552 0-1-.448-1-1v-1c0-4.962-4.038-9-9-9-.552 0-1-.448-1-1s.448-1 1-1c6.065 0 11 4.935 11 11v1C35 23.552 34.552 24 34 24zM27.858 22c-.444 0-.85-.298-.967-.748-.274-1.051-1.094-1.872-2.141-2.142-.535-.139-.856-.684-.718-1.219.138-.534.682-.855 1.219-.718 1.748.453 3.118 1.822 3.575 3.574.139.535-.181 1.08-.715 1.22C28.026 21.989 27.941 22 27.858 22z"
     id="path2" />
  <path
     fill="#7e57c2"
     d="M31,23c-0.552,0-1-0.448-1-1c0-3.188-2.494-5.818-5.678-5.986c-0.552-0.029-0.975-0.5-0.946-1.051 c0.029-0.552,0.508-0.976,1.051-0.946C28.674,14.241,32,17.748,32,22C32,22.552,31.552,23,31,23z"
     id="path3" />
  <path
     fill="#7e57c2"
     d="M24,4C19.5,4,12.488,4.414,8.216,8.316C5.196,11.323,4,15.541,4,21c0,0.452-0.002,0.956,0.002,1.5 C3.998,23.043,4,23.547,4,23.999c0,5.459,1.196,9.677,4.216,12.684c1.626,1.485,3.654,2.462,5.784,3.106v4.586 C14,45.971,15.049,46,15.241,46h0.009c0.494-0.002,0.921-0.244,1.349-0.624c0.161-0.143,2.02-2.215,4.042-4.481 C21.845,40.972,22.989,41,23.999,41c0,0,0,0,0,0s0,0,0,0c4.5,0,11.511-0.415,15.784-4.317c3.019-3.006,4.216-7.225,4.216-12.684 c0-0.452,0.002-0.956-0.002-1.5c0.004-0.544,0.002-1.047,0.002-1.5c0-5.459-1.196-9.677-4.216-12.684C35.511,4.414,28.5,4,24,4z M41,23.651l0,0.348c0,4.906-1.045,8.249-3.286,10.512C33.832,38,26.437,38,23.999,38c-0.742,0-1.946-0.001-3.367-0.1 C20.237,38.344,16,43.083,16,43.083V37.22c-2.104-0.505-4.183-1.333-5.714-2.708C8.045,32.248,7,28.905,7,23.999l0-0.348 c0-0.351-0.001-0.73,0.002-1.173C6.999,22.078,6.999,21.7,7,21.348L7,21c0-4.906,1.045-8.249,3.286-10.512 C14.167,6.999,21.563,6.999,24,6.999c2.437,0,9.832,0,13.713,3.489c2.242,2.263,3.286,5.606,3.286,10.512l0,0.348 c0,0.351,0.001,0.73-0.002,1.173C41,22.922,41,23.3,41,23.651z"
     id="path4" />
  <path
     style="fill:#43a257;stroke-width:0.0954274;fill-opacity:1"
     d="M 14.986085,45.92262 C 14.66035,45.84649 14.383114,45.613342 14.226909,45.284165 14.100201,45.017148 14.075498,44.540087 14.075245,42.355359 l -3.01e-4,-2.609832 -0.87604,-0.282546 C 12.050306,39.09253 10.374084,38.246467 9.4017906,37.546409 6.5662409,35.504797 4.8683298,32.203142 4.2266288,27.483101 4.0563103,26.23032 4.0554549,18.706841 4.2254951,17.510934 4.9333406,12.5326 6.6686462,9.2710507 9.6755711,7.2673836 12.596103,5.3212846 16.286828,4.3611707 21.852883,4.0995484 26.644331,3.8743351 31.308855,4.36478 34.48331,5.4275573 c 5.644209,1.8896274 8.34035,5.3960107 9.291195,12.0833767 0.17004,1.195907 0.169185,8.719386 -0.0011,9.972167 -0.552211,4.061797 -1.871498,7.041497 -4.031295,9.104955 -2.306988,2.204083 -5.751966,3.5343 -10.684422,4.1256 -1.046414,0.125444 -2.252749,0.170371 -4.948958,0.184309 l -3.565261,0.01843 -1.433163,1.609397 c -1.976396,2.219431 -2.779975,3.053276 -3.095437,3.212024 -0.32512,0.163608 -0.774235,0.244286 -1.02875,0.184803 z m 3.338011,-5.368681 2.28823,-2.579261 1.956262,0.05916 c 3.264608,0.09872 6.716246,-0.162844 9.061026,-0.686655 4.83828,-1.080845 7.240193,-3.027042 8.539813,-6.919549 0.442095,-1.324123 0.691409,-2.781847 0.825472,-4.82648 0.137833,-2.10212 0.05797,-6.419137 -0.147266,-7.960949 C 40.342456,13.845193 38.9554,11.157512 36.741996,9.6847639 34.840239,8.4193785 32.394027,7.6393191 28.914513,7.1886999 c -1.931929,-0.2501972 -7.897097,-0.2501972 -9.829026,0 -3.496807,0.4528587 -5.916341,1.2244337 -7.827697,2.496206 -2.2131773,1.4725981 -3.6002655,4.1604331 -4.1054231,7.9552991 -0.082701,0.621268 -0.1723095,2.247402 -0.203219,3.687827 -0.1129768,5.264873 0.32458,8.305258 1.5450111,10.735586 0.9778514,1.947263 2.233492,3.15391 4.263459,4.097106 0.817534,0.379855 2.326023,0.90829 2.900478,1.016059 l 0.325999,0.06116 v 2.94763 c 0,1.621197 0.01165,2.947631 0.02589,2.947631 0.01424,0 1.055589,-1.160668 2.314115,-2.579262 z"
     id="path5" />
  <path
     style="fill:#43a257;fill-opacity:1;stroke-width:0.0954274"
     d="m 33.53206,23.809179 c -0.36069,-0.196031 -0.445348,-0.518504 -0.501055,-1.908583 -0.127121,-3.172118 -1.504893,-5.734227 -3.970408,-7.383382 -1.418957,-0.949126 -2.731115,-1.393322 -4.528585,-1.533032 -0.902081,-0.07012 -0.959932,-0.08796 -1.2167,-0.375334 -0.298094,-0.333626 -0.338941,-0.651206 -0.134586,-1.046385 0.231933,-0.448509 0.508292,-0.528621 1.603598,-0.464854 2.609062,0.151893 5.369489,1.468933 7.182038,3.426653 2.023749,2.185836 3.126107,5.168308 2.993069,8.097862 -0.03338,0.735036 -0.05131,0.78962 -0.345743,1.052697 -0.342889,0.306373 -0.686575,0.349065 -1.081628,0.134358 z"
     id="path6" />
  <path
     style="fill:#43a257;fill-opacity:1;stroke-width:0.0954274"
     d="m 30.867174,22.926215 c -0.578683,-0.155874 -0.855246,-0.586001 -0.855246,-1.33013 0,-1.361713 -0.962056,-3.304668 -2.079695,-4.200124 -0.962687,-0.771308 -1.753121,-1.118197 -3.10849,-1.364185 -1.053991,-0.19129 -1.274246,-0.334462 -1.363834,-0.886527 -0.06774,-0.417466 0.119197,-0.756622 0.535792,-0.972052 0.233859,-0.120933 0.401304,-0.128043 1.012714,-0.043 1.339247,0.186272 2.3846,0.589142 3.511611,1.353342 1.997113,1.354196 3.392818,3.898167 3.398794,6.195028 0.0014,0.540693 -0.03419,0.679421 -0.235865,0.919093 -0.233987,0.278078 -0.542259,0.402235 -0.815781,0.328559 z"
     id="path7" />
  <path
     style="fill:#43a257;fill-opacity:1;stroke-width:0.0954274"
     d="m 27.308763,21.753398 c -0.142693,-0.112242 -0.33881,-0.44616 -0.462385,-0.787277 -0.294249,-0.812244 -0.972587,-1.492389 -1.783204,-1.787955 -0.692549,-0.252515 -0.967747,-0.547859 -0.967747,-1.038589 0,-0.694923 0.56359,-1.0812 1.269356,-0.870001 1.258157,0.376502 2.462277,1.374346 3.016181,2.499484 0.51835,1.052919 0.512881,1.667478 -0.01772,1.990999 -0.39471,0.240664 -0.742853,0.238465 -1.054481,-0.0067 z"
     id="path8" />
  <path
     style="fill:#43a257;fill-opacity:1;stroke-width:0.0954274"
     d="m 29.255684,33.873971 c -2.014795,-0.421819 -5.663144,-2.539052 -8.673457,-5.033434 -2.581706,-2.139234 -5.197909,-5.377343 -7.070837,-8.751671 -1.869309,-3.367807 -1.915463,-4.97749 -0.19063,-6.648439 1.121199,-1.086173 2.511711,-1.625151 3.233658,-1.253403 0.43328,0.223108 1.233609,1.194013 2.000705,2.427124 0.807184,1.297551 1.110712,1.914374 1.293907,2.629455 0.203855,0.795725 0.08873,1.045867 -0.890119,1.934024 -0.821797,0.745656 -0.970839,1.009752 -0.970839,1.720282 0,2.004613 2.906885,5.45713 5.669297,6.733443 1.438317,0.664544 2.239416,0.527314 3.066379,-0.525278 0.495707,-0.630955 1.096985,-1.054384 1.497248,-1.054384 1.01696,0 4.287515,1.868659 5.372527,3.069637 0.348048,0.385248 0.353941,0.40461 0.305773,1.004687 -0.07035,0.876368 -0.492391,1.676835 -1.340902,2.543214 -1.065878,1.088322 -2.084326,1.459825 -3.30271,1.204743 z"
     id="path9" />
</svg>
